<svg xmlns="http://www.w3.org/2000/svg" width="45.721" height="45.721" viewBox="0 0 45.721 45.721">
  <g id="_1-fluxo-de-caixa" data-name="1-fluxo-de-caixa" transform="translate(-30.185 -284.279)">
    <g id="_016-analytics" data-name="016-analytics" transform="translate(30.185 284.279)">
      <g id="Grupo_50" data-name="Grupo 50" transform="translate(0.737 8.112)">
        <ellipse id="Elipse_19" data-name="Elipse 19" cx="7.374" cy="7.374" rx="7.374" ry="7.374" transform="translate(29.497)" fill="#ffcb57"/>
        <ellipse id="Elipse_20" data-name="Elipse 20" cx="7.374" cy="7.374" rx="7.374" ry="7.374" transform="translate(0 13.274)" fill="#ffcb57"/>
      </g>
      <g id="Grupo_51" data-name="Grupo 51" transform="translate(17.698 20.648)">
        <rect id="Retângulo_165" data-name="Retângulo 165" width="1.475" height="10.324" transform="translate(13.274 5.162)" fill="#e56565"/>
        <rect id="Retângulo_166" data-name="Retângulo 166" width="1.475" height="4.425" transform="translate(8.849 11.062)" fill="#e56565"/>
        <rect id="Retângulo_167" data-name="Retângulo 167" width="1.475" height="10.324" transform="translate(4.425 5.162)" fill="#e56565"/>
        <rect id="Retângulo_168" data-name="Retângulo 168" width="1.475" height="15.486" fill="#e56565"/>
      </g>
      <g id="Grupo_52" data-name="Grupo 52">
        <path id="Caminho_433" data-name="Caminho 433" d="M96,419.687a3.691,3.691,0,0,0,3.687,3.687h20.648a3.691,3.691,0,0,0,3.687-3.687V416H96Zm1.475-2.212h25.073v2.212a2.215,2.215,0,0,1-2.212,2.212H99.687a2.215,2.215,0,0,1-2.212-2.212Z" transform="translate(-87.151 -377.653)" fill="#3f3a34"/>
        <rect id="Retângulo_169" data-name="Retângulo 169" width="7.374" height="1.475" transform="translate(19.173 41.296)" fill="#3f3a34"/>
        <path id="Caminho_434" data-name="Caminho 434" d="M97.475,5.9h26.548V3.687A3.691,3.691,0,0,0,120.335,0H99.687A3.691,3.691,0,0,0,96,3.687V19.173h1.475Zm2.212-4.425h20.648a2.215,2.215,0,0,1,2.212,2.212v.737H97.475V3.687A2.215,2.215,0,0,1,99.687,1.475Z" transform="translate(-87.151)" fill="#3f3a34"/>
        <rect id="Retângulo_170" data-name="Retângulo 170" width="1.475" height="11.799" transform="translate(35.397 25.073)" fill="#3f3a34"/>
        <path id="Caminho_435" data-name="Caminho 435" d="M37.609,80a8.1,8.1,0,0,0-5.867,13.7L28.6,97.285a2.851,2.851,0,0,0-2.541-.05l-6-7.38a2.952,2.952,0,1,0-4.627.128l-3.2,4.431a8.134,8.134,0,1,0,1.195.864l3.2-4.425a2.86,2.86,0,0,0,2.295-.066l6,7.38a2.945,2.945,0,1,0,4.8.083l3.133-3.581A8.107,8.107,0,1,0,37.609,80Zm-22.86,21.386a6.637,6.637,0,1,1-6.637-6.637A6.645,6.645,0,0,1,14.749,101.386Zm1.475-13.274A1.475,1.475,0,1,1,17.7,89.587,1.476,1.476,0,0,1,16.224,88.112Zm11.062,13.274a1.475,1.475,0,1,1,1.475-1.475A1.476,1.476,0,0,1,27.285,101.386Zm10.324-6.637a6.637,6.637,0,1,1,6.637-6.637A6.645,6.645,0,0,1,37.609,94.749Z" transform="translate(0 -72.626)" fill="#3f3a34"/>
        <path id="Caminho_436" data-name="Caminho 436" d="M370.212,114.95h2.95a.739.739,0,0,1,.737.737h1.475a2.215,2.215,0,0,0-2.212-2.212h-.737V112H370.95v1.475h-.737a2.212,2.212,0,0,0,0,4.425h2.95a.737.737,0,0,1,0,1.475h-2.95a.739.739,0,0,1-.737-.737H368a2.215,2.215,0,0,0,2.212,2.212h.737v1.475h1.475v-1.475h.737a2.212,2.212,0,0,0,0-4.425h-2.95a.737.737,0,0,1,0-1.475Z" transform="translate(-334.078 -101.676)" fill="#3f3a34"/>
        <path id="Caminho_437" data-name="Caminho 437" d="M50.212,258.95h2.95a.739.739,0,0,1,.737.737h1.475a2.215,2.215,0,0,0-2.212-2.212h-.737V256H50.95v1.475h-.737a2.212,2.212,0,0,0,0,4.425h2.95a.737.737,0,0,1,0,1.475h-2.95a.739.739,0,0,1-.737-.737H48a2.215,2.215,0,0,0,2.212,2.212h.737v1.475h1.475v-1.475h.737a2.212,2.212,0,1,0,0-4.425h-2.95a.737.737,0,0,1,0-1.475Z" transform="translate(-43.575 -232.402)" fill="#3f3a34"/>
        <rect id="Retângulo_171" data-name="Retângulo 171" width="19.911" height="1.475" transform="translate(14.011 35.397)" fill="#3f3a34"/>
      </g>
    </g>
  </g>
</svg>
