<svg xmlns="http://www.w3.org/2000/svg" width="45.211" height="45.211" viewBox="0 0 45.211 45.211">
  <g id="_2-contas-a-pagar" data-name="2-contas-a-pagar" transform="translate(-159.844 -284.832)">
    <g id="_019-laptop" data-name="019-laptop" transform="translate(159.844 284.832)">
      <rect id="Retângulo_189" data-name="Retângulo 189" width="27.71" height="2.917" transform="translate(16.772 3.646)" fill="#ffcb57"/>
      <g id="Grupo_60" data-name="Grupo 60" transform="translate(18.959 11.667)">
        <rect id="Retângulo_190" data-name="Retângulo 190" width="5.834" height="1.458" fill="#e56565"/>
        <rect id="Retângulo_191" data-name="Retângulo 191" width="5.834" height="1.458" transform="translate(0 2.917)" fill="#e56565"/>
      </g>
      <ellipse id="Elipse_22" data-name="Elipse 22" cx="7.292" cy="7.292" rx="7.292" ry="7.292" transform="translate(12.397 21.147)" fill="#ffcb57"/>
      <g id="Grupo_61" data-name="Grupo 61">
        <path id="Caminho_458" data-name="Caminho 458" d="M26.251,417.458H37.919v2.188a2.19,2.19,0,0,1-2.188,2.188H3.646a2.19,2.19,0,0,1-2.188-2.188v-2.188H13.126V416H0v3.646a3.65,3.65,0,0,0,3.646,3.646H35.731a3.65,3.65,0,0,0,3.646-3.646V416H26.251Z" transform="translate(0 -378.081)" fill="#3f3a34"/>
        <path id="Caminho_459" data-name="Caminho 459" d="M160,418.188a2.19,2.19,0,0,0,2.188,2.188h5.834a2.19,2.19,0,0,0,2.188-2.188V416H160Zm1.458-.729h7.292v.729a.729.729,0,0,1-.729.729h-5.834a.729.729,0,0,1-.729-.729Z" transform="translate(-145.416 -378.081)" fill="#3f3a34"/>
        <path id="Caminho_460" data-name="Caminho 460" d="M17.458,147.646a2.19,2.19,0,0,1,2.188-2.188h9.48V144h-9.48A3.65,3.65,0,0,0,16,147.646v19.689h1.458Z" transform="translate(-14.542 -130.874)" fill="#3f3a34"/>
        <rect id="Retângulo_192" data-name="Retângulo 192" width="1.458" height="16.043" transform="translate(36.46 20.418)" fill="#3f3a34"/>
        <path id="Caminho_461" data-name="Caminho 461" d="M58.209,176h-8.75A1.46,1.46,0,0,0,48,177.458v18.959h1.458V177.458h8.75Z" transform="translate(-43.625 -159.957)" fill="#3f3a34"/>
        <rect id="Retângulo_193" data-name="Retângulo 193" width="1.458" height="16.043" transform="translate(33.544 20.418)" fill="#3f3a34"/>
        <path id="Caminho_462" data-name="Caminho 462" d="M202.981,0H178.188A2.19,2.19,0,0,0,176,2.188V16.772a2.19,2.19,0,0,0,2.188,2.188h24.793a2.19,2.19,0,0,0,2.188-2.188V2.188A2.19,2.19,0,0,0,202.981,0ZM178.188,1.458h24.793a.73.73,0,0,1,.729.729v.729H177.458V2.188A.73.73,0,0,1,178.188,1.458ZM203.71,4.375V5.834H177.458V4.375ZM202.981,17.5H178.188a.73.73,0,0,1-.729-.729V7.292H203.71v9.48A.73.73,0,0,1,202.981,17.5Z" transform="translate(-159.957)" fill="#3f3a34"/>
        <path id="Caminho_463" data-name="Caminho 463" d="M351.292,96a3.6,3.6,0,0,0-1.823.508A3.6,3.6,0,0,0,347.646,96a3.646,3.646,0,0,0,0,7.292,3.6,3.6,0,0,0,1.823-.508,3.6,3.6,0,0,0,1.823.508,3.646,3.646,0,0,0,0-7.292Zm-1.823,4.851a2.172,2.172,0,0,1,0-2.409,2.172,2.172,0,0,1,0,2.409Zm-4.011-1.2a2.19,2.19,0,0,1,2.188-2.188,2.146,2.146,0,0,1,.656.112,3.615,3.615,0,0,0,0,4.152,2.146,2.146,0,0,1-.656.112A2.19,2.19,0,0,1,345.458,99.646Zm5.834,2.188a2.146,2.146,0,0,1-.656-.112,3.615,3.615,0,0,0,0-4.152,2.146,2.146,0,0,1,.656-.112,2.188,2.188,0,0,1,0,4.375Z" transform="translate(-312.644 -87.25)" fill="#3f3a34"/>
        <path id="Caminho_464" data-name="Caminho 464" d="M144.043,232.021a8.021,8.021,0,1,0-8.021,8.021A8.031,8.031,0,0,0,144.043,232.021Zm-8.021,6.563a6.563,6.563,0,1,1,6.563-6.563A6.57,6.57,0,0,1,136.021,238.584Z" transform="translate(-116.333 -203.582)" fill="#3f3a34"/>
        <path id="Caminho_465" data-name="Caminho 465" d="M181.1,257.458h-.729V256h-1.458v1.458h-.729a2.188,2.188,0,1,0,0,4.375H181.1a.729.729,0,0,1,0,1.458h-2.917a.729.729,0,0,1-.729-.729v-.729H176v.729a2.19,2.19,0,0,0,2.188,2.188h.729v1.458h1.458V264.75h.729a2.188,2.188,0,0,0,0-4.375h-2.917a.729.729,0,1,1,0-1.458H181.1a.729.729,0,0,1,.729.729v.729h1.458v-.729A2.19,2.19,0,0,0,181.1,257.458Z" transform="translate(-159.957 -232.665)" fill="#3f3a34"/>
      </g>
    </g>
  </g>
</svg>
