<svg xmlns="http://www.w3.org/2000/svg" width="46.527" height="46.527" viewBox="0 0 46.527 46.527">
  <g id="_4-relatorios" data-name="4-relatorios" transform="translate(-35.859 -442.473)">
    <g id="_003-online-banking-6" data-name="003-online-banking-6" transform="translate(35.859 442.473)">
      <g id="Grupo_16" data-name="Grupo 16">
        <ellipse id="Elipse_6" data-name="Elipse 6" cx="3.752" cy="3.752" rx="3.752" ry="3.752" transform="translate(19.511 3.752)" fill="#ffcb57"/>
        <ellipse id="Elipse_7" data-name="Elipse 7" cx="3.752" cy="3.752" rx="3.752" ry="3.752" transform="translate(19.511 35.271)" fill="#ffcb57"/>
        <path id="Caminho_321" data-name="Caminho 321" d="M402.251,13.508h4.5a2.251,2.251,0,0,0,2.251-2.251V2.251A2.251,2.251,0,0,0,406.754,0h-4.5A2.251,2.251,0,0,0,400,2.251v9.005A2.251,2.251,0,0,0,402.251,13.508Z" transform="translate(-362.478)" fill="#ffcb57"/>
        <path id="Caminho_322" data-name="Caminho 322" d="M2.251,365.508h4.5a2.251,2.251,0,0,0,2.251-2.251v-9.005A2.251,2.251,0,0,0,6.754,352h-4.5A2.251,2.251,0,0,0,0,354.251v9.005A2.251,2.251,0,0,0,2.251,365.508Z" transform="translate(0 -318.981)" fill="#ffcb57"/>
      </g>
      <g id="Grupo_17" data-name="Grupo 17" transform="translate(3.002 3.002)">
        <rect id="Retângulo_45" data-name="Retângulo 45" width="1.501" height="1.501" transform="translate(33.77 22.513)" fill="#e56565"/>
        <rect id="Retângulo_46" data-name="Retângulo 46" width="1.501" height="1.501" transform="translate(33.77 25.515)" fill="#e56565"/>
        <rect id="Retângulo_47" data-name="Retângulo 47" width="1.501" height="1.501" transform="translate(33.77 28.517)" fill="#e56565"/>
        <rect id="Retângulo_48" data-name="Retângulo 48" width="1.501" height="1.501" transform="translate(22.513 11.257)" fill="#e56565"/>
        <rect id="Retângulo_49" data-name="Retângulo 49" width="1.501" height="1.501" transform="translate(22.513 14.258)" fill="#e56565"/>
        <rect id="Retângulo_50" data-name="Retângulo 50" width="1.501" height="1.501" transform="translate(22.513 17.26)" fill="#e56565"/>
        <rect id="Retângulo_51" data-name="Retângulo 51" width="1.501" height="1.501" fill="#e56565"/>
        <rect id="Retângulo_52" data-name="Retângulo 52" width="1.501" height="1.501" transform="translate(0 3.002)" fill="#e56565"/>
        <rect id="Retângulo_53" data-name="Retângulo 53" width="1.501" height="1.501" transform="translate(0 6.003)" fill="#e56565"/>
      </g>
      <g id="Grupo_18" data-name="Grupo 18">
        <path id="Caminho_323" data-name="Caminho 323" d="M272,121.5h4.5a3.756,3.756,0,0,1,3.752,3.752v13.508a3.756,3.756,0,0,1-3.752,3.752H272v1.5h4.5a5.26,5.26,0,0,0,5.253-5.253V125.253A5.26,5.26,0,0,0,276.5,120H272Z" transform="translate(-246.485 -108.743)" fill="#3f3a34"/>
        <path id="Caminho_324" data-name="Caminho 324" d="M129.756,142.513h-4.5a3.756,3.756,0,0,1-3.752-3.752V125.253a3.756,3.756,0,0,1,3.752-3.752h4.5V120h-4.5A5.26,5.26,0,0,0,120,125.253v13.508a5.26,5.26,0,0,0,5.253,5.253h4.5Z" transform="translate(-108.743 -108.743)" fill="#3f3a34"/>
        <path id="Caminho_325" data-name="Caminho 325" d="M1.5,18.761V5.253A3.756,3.756,0,0,1,5.253,1.5H18.761a3.756,3.756,0,0,1,3.752,3.752v.138a2.238,2.238,0,0,0,0,4.226v9.143a3.756,3.756,0,0,1-3.752,3.752h-4.5v1.5h4.5a5.26,5.26,0,0,0,5.253-5.253V9.618a2.238,2.238,0,0,0,0-4.226V5.253A5.26,5.26,0,0,0,18.761,0H5.253A5.26,5.26,0,0,0,0,5.253V18.761a5.26,5.26,0,0,0,5.253,5.253h4.5v-1.5h-4.5A3.756,3.756,0,0,1,1.5,18.761ZM23.264,8.255a.75.75,0,1,1,.75-.75A.751.751,0,0,1,23.264,8.255Z" fill="#3f3a34"/>
        <path id="Caminho_326" data-name="Caminho 326" d="M244.262,240h-4.5v1.5h4.5a3.756,3.756,0,0,1,3.752,3.752v13.508a3.756,3.756,0,0,1-3.752,3.752H230.754A3.756,3.756,0,0,1,227,258.761v-.138a2.238,2.238,0,0,0,0-4.226v-9.143a3.756,3.756,0,0,1,3.752-3.752h4.5V240h-4.5a5.26,5.26,0,0,0-5.253,5.253V254.4a2.238,2.238,0,0,0,0,4.226v.138a5.26,5.26,0,0,0,5.253,5.253h13.508a5.26,5.26,0,0,0,5.253-5.253V245.253A5.26,5.26,0,0,0,244.262,240Zm-18.01,15.759a.75.75,0,1,1-.75.75A.751.751,0,0,1,226.251,255.759Z" transform="translate(-202.988 -217.487)" fill="#3f3a34"/>
        <path id="Caminho_327" data-name="Caminho 327" d="M406,6h-3a1.5,1.5,0,1,1,0-3h3a1.5,1.5,0,0,1,1.5,1.5h1.5a3,3,0,0,0-3-3h-.75V0h-1.5V1.5H403a3,3,0,1,0,0,6h3a1.5,1.5,0,1,1,0,3h-3a1.5,1.5,0,0,1-1.5-1.5H400a3,3,0,0,0,3,3h.75v1.5h1.5v-1.5H406a3,3,0,1,0,0-6Z" transform="translate(-362.478)" fill="#3f3a34"/>
        <path id="Caminho_328" data-name="Caminho 328" d="M3,355H6a1.5,1.5,0,0,1,1.5,1.5h1.5a3,3,0,0,0-3-3h-.75V352h-1.5v1.5H3a3,3,0,1,0,0,6H6a1.5,1.5,0,1,1,0,3H3a1.5,1.5,0,0,1-1.5-1.5H0a3,3,0,0,0,3,3h.75v1.5h1.5v-1.5H6a3,3,0,0,0,0-6H3a1.5,1.5,0,1,1,0-3Z" transform="translate(0 -318.981)" fill="#3f3a34"/>
      </g>
    </g>
  </g>
</svg>
