<svg xmlns="http://www.w3.org/2000/svg" width="49.49" height="49.289" viewBox="0 0 49.49 49.289">
  <g id="_5-clientes" data-name="5-clientes" transform="translate(-161 -442.06)">
    <g id="_009-invoice-1" data-name="009-invoice-1" transform="translate(161 442.06)">
      <g id="Grupo_32" data-name="Grupo 32" transform="translate(5.677 0.913)">
        <path id="Caminho_376" data-name="Caminho 376" d="M68.015,20.746V16.182a2.738,2.738,0,0,0-2.738-2.738h0l-.361-.6a8.159,8.159,0,0,0-7-3.961h0a8.159,8.159,0,0,0-8.159,8.159v3.707l1.927-.913h1.724a13.692,13.692,0,0,0,8.215-2.738h0l.392.589a4.828,4.828,0,0,0,4.016,2.15h0Z" transform="translate(-49.76 -8.88)" fill="#ffcb57"/>
      </g>
      <g id="Grupo_33" data-name="Grupo 33" transform="translate(18.456 11.866)">
        <rect id="Retângulo_113" data-name="Retângulo 113" width="6.389" height="1.826" transform="translate(20.081 3.651)" fill="#e56565"/>
        <rect id="Retângulo_114" data-name="Retângulo 114" width="6.389" height="1.826" transform="translate(20.081)" fill="#e56565"/>
        <rect id="Retângulo_115" data-name="Retângulo 115" width="14.604" height="1.826" transform="translate(0 28.296)" fill="#e56565"/>
        <rect id="Retângulo_116" data-name="Retângulo 116" width="1.826" height="1.826" transform="translate(16.43 28.296)" fill="#e56565"/>
        <rect id="Retângulo_117" data-name="Retângulo 117" width="18.255" height="1.826" transform="translate(0 31.947)" fill="#e56565"/>
      </g>
      <g id="Grupo_34" data-name="Grupo 34" transform="translate(0 0)">
        <path id="Caminho_377" data-name="Caminho 377" d="M36.53,19.018a4.552,4.552,0,0,0,1.032,2.63l2.9,3.476a3.64,3.64,0,0,0,2.8,1.314h2.911a3.642,3.642,0,0,0,2.8-1.313l2.9-3.476a4.557,4.557,0,0,0,1.033-2.636A3.66,3.66,0,0,0,54.669,18a3.62,3.62,0,0,0,1-2.707,3.528,3.528,0,0,0-.907-2.16V9.095a3.657,3.657,0,0,0-3.111-3.611l-.12-.2a9.071,9.071,0,0,0-16.85,4.668v3.129a3.5,3.5,0,0,0-.844,1.689,3.636,3.636,0,0,0,2.7,4.248Zm-.9-3.9a1.773,1.773,0,0,1,.877-1.178v3.119a1.788,1.788,0,0,1-.877-1.941Zm14.847,5.365-2.9,3.476a1.818,1.818,0,0,1-1.4.657H43.264a1.822,1.822,0,0,1-1.4-.657l-2.9-3.476a2.74,2.74,0,0,1-.635-1.753V13.659h.913a14.716,14.716,0,0,0,7.977-2.371A5.719,5.719,0,0,0,51.108,13.6v5.122A2.744,2.744,0,0,1,50.474,20.479Zm2.872-3.739a1.845,1.845,0,0,1-.412.316v-3.1a1.773,1.773,0,0,1,.412,2.788ZM36.5,9.952A7.247,7.247,0,0,1,49.965,6.223l.627,1.046h.517a1.827,1.827,0,0,1,1.826,1.826V12a3.925,3.925,0,0,0-1.068-.162,3.906,3.906,0,0,1-3.257-1.743L47.681,8.7l-.771.579a12.864,12.864,0,0,1-7.667,2.556H37.518a3.877,3.877,0,0,0-1.014.147Z" transform="translate(-29.914 -0.88)" fill="#3f3a34"/>
        <path id="Caminho_378" data-name="Caminho 378" d="M29.075,230.422a5.464,5.464,0,0,0-4.3-4.3l-5.41-1.082v-.164H17.543v.8l-.571,2.286-2.167-1.444-2.167,1.445-.571-2.286v-.8H10.241v.181l-4.6,1.022a5.479,5.479,0,0,0-4.182,4.272L0,237.659H30.523Zm-25.824.29a3.655,3.655,0,0,1,2.788-2.849l4.445-.988,1.011,4.045,2.4-1.6v6.51H2.227Zm12.467,5.121v-6.51l2.4,1.6,1.016-4.064,5.29,1.058a3.644,3.644,0,0,1,2.864,2.864l1.01,5.053Z" transform="translate(0 -199.323)" fill="#3f3a34"/>
        <rect id="Retângulo_118" data-name="Retângulo 118" width="1.826" height="1.826" transform="translate(17.543 32.86)" fill="#3f3a34"/>
        <rect id="Retângulo_119" data-name="Retângulo 119" width="1.826" height="17.343" transform="translate(47.665 11.866)" fill="#3f3a34"/>
        <path id="Caminho_381" data-name="Caminho 381" d="M131.586,352.88H129.76v9.128h21.906v-1.826H131.586Z" transform="translate(-114.955 -312.718)" fill="#3f3a34"/>
        <path id="Caminho_382" data-name="Caminho 382" d="M204.015,10.92h10.04V9.63L205.306.88H185.76V2.706h18.255ZM205.841,4l5.1,5.1h-5.1Z" transform="translate(-164.566 -0.88)" fill="#3f3a34"/>
        <path id="Caminho_383" data-name="Caminho 383" d="M241.76,42.008v.456a3.2,3.2,0,0,0,3.195,3.195h.456v1.826h1.826V45.659h.456a3.195,3.195,0,1,0,0-6.389h-2.738a1.369,1.369,0,1,1,0-2.738h2.738a1.371,1.371,0,0,1,1.369,1.369v.456h1.826V37.9a3.2,3.2,0,0,0-3.195-3.195h-.456V32.88h-1.826v1.826h-.456a3.195,3.195,0,1,0,0,6.389h2.738a1.369,1.369,0,0,1,0,2.738h-2.738a1.371,1.371,0,0,1-1.369-1.369v-.456H241.76Z" transform="translate(-214.176 -29.229)" fill="#3f3a34"/>
        <path id="Caminho_384" data-name="Caminho 384" d="M280.364,176.88h-14.6v9.128h14.6Zm-1.826,7.3H267.586v-5.477h10.953Z" transform="translate(-235.438 -156.799)" fill="#3f3a34"/>
        <rect id="Retângulo_120" data-name="Retângulo 120" width="3.651" height="1.826" transform="translate(37.624 23.732)" fill="#3f3a34"/>
        <rect id="Retângulo_121" data-name="Retângulo 121" width="1.826" height="1.826" transform="translate(33.973 23.732)" fill="#3f3a34"/>
      </g>
    </g>
  </g>
</svg>
