<svg xmlns="http://www.w3.org/2000/svg" width="48.805" height="48.805" viewBox="0 0 48.805 48.805">
  <g id="_9-utlimos-lancamentos" data-name="9-utlimos-lancamentos" transform="translate(-286.695 -608.195)">
    <g id="_008-startup" data-name="008-startup" transform="translate(286.695 608.195)">
      <g id="Grupo_29" data-name="Grupo 29" transform="translate(16.531 3.149)">
        <path id="Caminho_368" data-name="Caminho 368" d="M203.021,216H192v17.318h3.149v3.149h4.723v-3.149h3.149Z" transform="translate(-189.638 -197.895)" fill="#ffcb57"/>
        <ellipse id="Elipse_13" data-name="Elipse 13" cx="7.872" cy="7.872" rx="7.872" ry="7.872" fill="#ffcb57"/>
      </g>
      <g id="Grupo_30" data-name="Grupo 30" transform="translate(11.021)">
        <rect id="Retângulo_72" data-name="Retângulo 72" width="1.574" height="1.574" transform="translate(26.764 7.085)" fill="#e56565"/>
        <rect id="Retângulo_73" data-name="Retângulo 73" width="1.574" height="1.574" transform="translate(26.764 10.233)" fill="#e56565"/>
        <rect id="Retângulo_74" data-name="Retângulo 74" width="1.574" height="1.574" transform="translate(28.339 8.659)" fill="#e56565"/>
        <rect id="Retângulo_75" data-name="Retângulo 75" width="1.574" height="1.574" transform="translate(25.19 8.659)" fill="#e56565"/>
        <rect id="Retângulo_76" data-name="Retângulo 76" width="1.574" height="1.574" transform="translate(1.574 21.254)" fill="#e56565"/>
        <rect id="Retângulo_77" data-name="Retângulo 77" width="1.574" height="1.574" transform="translate(1.574 24.403)" fill="#e56565"/>
        <rect id="Retângulo_78" data-name="Retângulo 78" width="1.574" height="1.574" transform="translate(3.149 22.828)" fill="#e56565"/>
        <rect id="Retângulo_79" data-name="Retângulo 79" width="1.574" height="1.574" transform="translate(0 22.828)" fill="#e56565"/>
        <rect id="Retângulo_80" data-name="Retângulo 80" width="1.574" height="1.574" transform="translate(21.254)" fill="#e56565"/>
        <rect id="Retângulo_81" data-name="Retângulo 81" width="1.574" height="1.574" transform="translate(21.254 3.149)" fill="#e56565"/>
        <rect id="Retângulo_82" data-name="Retângulo 82" width="1.574" height="1.574" transform="translate(22.828 1.574)" fill="#e56565"/>
        <rect id="Retângulo_83" data-name="Retângulo 83" width="1.574" height="1.574" transform="translate(19.68 1.574)" fill="#e56565"/>
        <rect id="Retângulo_84" data-name="Retângulo 84" width="1.574" height="1.574" transform="translate(1.574 2.362)" fill="#e56565"/>
        <rect id="Retângulo_85" data-name="Retângulo 85" width="1.574" height="1.574" transform="translate(1.574 5.51)" fill="#e56565"/>
        <rect id="Retângulo_86" data-name="Retângulo 86" width="1.574" height="1.574" transform="translate(3.149 3.936)" fill="#e56565"/>
        <rect id="Retângulo_87" data-name="Retângulo 87" width="1.574" height="1.574" transform="translate(0 3.936)" fill="#e56565"/>
      </g>
      <g id="Grupo_31" data-name="Grupo 31" transform="translate(0 2.362)">
        <path id="Caminho_369" data-name="Caminho 369" d="M168.659,41.318A8.659,8.659,0,1,0,160,32.659,8.669,8.669,0,0,0,168.659,41.318Zm0-15.744a7.085,7.085,0,1,1-7.085,7.085A7.093,7.093,0,0,1,168.659,25.574Z" transform="translate(-144.256 -24)" fill="#3f3a34"/>
        <path id="Caminho_370" data-name="Caminho 370" d="M219.936,63.872h-1.574a.788.788,0,0,1-.787-.787H216a2.364,2.364,0,0,0,2.362,2.362v1.574h1.574V65.446a2.362,2.362,0,0,0,0-4.723h-1.574a.787.787,0,0,1,0-1.574h1.574a.788.788,0,0,1,.787.787H222.3a2.364,2.364,0,0,0-2.362-2.362V56h-1.574v1.574a2.362,2.362,0,0,0,0,4.723h1.574a.787.787,0,0,1,0,1.574Z" transform="translate(-194.746 -52.851)" fill="#3f3a34"/>
        <rect id="Retângulo_88" data-name="Retângulo 88" width="1.574" height="1.574" transform="translate(18.892 34.636)" fill="#3f3a34"/>
        <rect id="Retângulo_89" data-name="Retângulo 89" width="1.574" height="14.169" transform="translate(18.892 18.892)" fill="#3f3a34"/>
        <rect id="Retângulo_90" data-name="Retângulo 90" width="1.574" height="14.169" transform="translate(28.339 18.892)" fill="#3f3a34"/>
        <rect id="Retângulo_91" data-name="Retângulo 91" width="1.574" height="1.574" transform="translate(28.339 34.636)" fill="#3f3a34"/>
        <rect id="Retângulo_92" data-name="Retângulo 92" width="1.574" height="1.574" transform="translate(22.041 37.785)" fill="#3f3a34"/>
        <rect id="Retângulo_93" data-name="Retângulo 93" width="1.574" height="17.318" transform="translate(22.041 18.892)" fill="#3f3a34"/>
        <rect id="Retângulo_94" data-name="Retângulo 94" width="1.574" height="1.574" transform="translate(25.19 37.785)" fill="#3f3a34"/>
        <rect id="Retângulo_95" data-name="Retângulo 95" width="1.574" height="17.318" transform="translate(25.19 18.892)" fill="#3f3a34"/>
        <path id="Caminho_371" data-name="Caminho 371" d="M12.8,339.946a5.476,5.476,0,0,1,4.514-2.372V336a7.043,7.043,0,0,0-6.433,4.153A7.1,7.1,0,0,0,6.7,343.1,7.088,7.088,0,0,0,0,350.169v1.574H1.574v-1.574a5.517,5.517,0,0,1,4.3-5.372,7.065,7.065,0,0,0-.362,2.223H7.085a5.51,5.51,0,1,1,11.021,0H19.68A7.088,7.088,0,0,0,12.8,339.946Z" transform="translate(0 -305.3)" fill="#3f3a34"/>
        <path id="Caminho_372" data-name="Caminho 372" d="M308.97,343.1a7.1,7.1,0,0,0-4.174-2.949A7.043,7.043,0,0,0,298.362,336v1.574a5.476,5.476,0,0,1,4.515,2.372A7.088,7.088,0,0,0,296,347.021h1.574a5.5,5.5,0,0,1,9.513-3.773,7.1,7.1,0,0,0-3.806,2.236l1.181,1.042a5.51,5.51,0,0,1,9.643,3.644v1.574h1.574v-1.574A7.087,7.087,0,0,0,308.97,343.1Z" transform="translate(-266.874 -305.3)" fill="#3f3a34"/>
        <path id="Caminho_373" data-name="Caminho 373" d="M120,440v1.574a3.152,3.152,0,0,1,3.149,3.149v.787h1.574v-.787A4.728,4.728,0,0,0,120,440Z" transform="translate(-108.192 -399.067)" fill="#3f3a34"/>
        <path id="Caminho_374" data-name="Caminho 374" d="M232,452.723h1.574a3.152,3.152,0,0,1,3.149-3.149V448A4.728,4.728,0,0,0,232,452.723Z" transform="translate(-209.172 -406.279)" fill="#3f3a34"/>
        <path id="Caminho_375" data-name="Caminho 375" d="M344,456v1.574a2.364,2.364,0,0,1,2.362,2.362h1.574A3.94,3.94,0,0,0,344,456Z" transform="translate(-310.151 -413.492)" fill="#3f3a34"/>
        <rect id="Retângulo_96" data-name="Retângulo 96" width="1.574" height="2.362" transform="translate(7.872 7.872)" fill="#3f3a34"/>
        <rect id="Retângulo_97" data-name="Retângulo 97" width="1.574" height="2.362" transform="matrix(-0.707, 0.707, -0.707, -0.707, 7.545, 10.369)" fill="#3f3a34"/>
        <rect id="Retângulo_98" data-name="Retângulo 98" width="2.362" height="1.574" transform="translate(3.936 11.808)" fill="#3f3a34"/>
        <rect id="Retângulo_99" data-name="Retângulo 99" width="2.362" height="1.574" transform="translate(7.545 14.824) rotate(135)" fill="#3f3a34"/>
        <rect id="Retângulo_100" data-name="Retângulo 100" width="1.574" height="2.362" transform="translate(7.872 14.956)" fill="#3f3a34"/>
        <rect id="Retângulo_101" data-name="Retângulo 101" width="1.574" height="2.362" transform="matrix(-0.707, 0.707, -0.707, -0.707, 12.555, 15.379)" fill="#3f3a34"/>
        <rect id="Retângulo_102" data-name="Retângulo 102" width="2.362" height="1.574" transform="translate(11.021 11.808)" fill="#3f3a34"/>
        <rect id="Retângulo_103" data-name="Retângulo 103" width="2.362" height="1.574" transform="translate(12.555 9.812) rotate(135)" fill="#3f3a34"/>
        <rect id="Retângulo_104" data-name="Retângulo 104" width="1.574" height="2.362" transform="translate(35.423 15.744)" fill="#3f3a34"/>
        <rect id="Retângulo_105" data-name="Retângulo 105" width="1.574" height="2.362" transform="translate(35.097 18.24) rotate(135)" fill="#3f3a34"/>
        <rect id="Retângulo_106" data-name="Retângulo 106" width="2.362" height="1.574" transform="translate(31.487 19.68)" fill="#3f3a34"/>
        <rect id="Retângulo_107" data-name="Retângulo 107" width="2.362" height="1.574" transform="translate(35.097 22.691) rotate(135)" fill="#3f3a34"/>
        <rect id="Retângulo_108" data-name="Retângulo 108" width="1.574" height="2.362" transform="translate(35.423 22.828)" fill="#3f3a34"/>
        <rect id="Retângulo_109" data-name="Retângulo 109" width="1.574" height="2.362" transform="translate(40.106 23.249) rotate(135)" fill="#3f3a34"/>
        <rect id="Retângulo_110" data-name="Retângulo 110" width="2.362" height="1.574" transform="translate(38.572 19.68)" fill="#3f3a34"/>
        <rect id="Retângulo_111" data-name="Retângulo 111" width="2.362" height="1.574" transform="translate(40.107 17.685) rotate(135)" fill="#3f3a34"/>
      </g>
    </g>
  </g>
</svg>
