<svg xmlns="http://www.w3.org/2000/svg" width="107.386" height="24" viewBox="0 0 107.386 24">
  <g id="logo-branco" transform="translate(-147.614 -62)">
    <g id="Grupo_7" data-name="Grupo 7" transform="translate(120 10)">
      <text id="MoneyMio" transform="translate(46 70)" fill="#fff" font-size="17" font-family="Poppins-Bold, Poppins" font-weight="700"><tspan x="0" y="0">Money</tspan><tspan y="0" font-family="Poppins-Regular, Poppins" font-weight="400">Mio</tspan></text>
      <g id="Grupo_8" data-name="Grupo 8" transform="translate(0.187 4.501)">
        <g id="Menu" transform="translate(35.561 53.936) rotate(90)">
          <g id="Grupo_6" data-name="Grupo 6" opacity="0.9">
            <path id="Caminho_12" data-name="Caminho 12" d="M14.872,1.574H.787A.787.787,0,1,1,.787,0H14.872a.787.787,0,1,1,0,1.574Z" transform="translate(-1.965 3.28)" fill="#fff"/>
            <path id="Caminho_13" data-name="Caminho 13" d="M11.255,1.573H.474C.213,1.573,0,1.22,0,.787S.213,0,.474,0h10.78c.261,0,.474.353.474.787S11.516,1.573,11.255,1.573Z" fill="#fff"/>
            <path id="Caminho_14" data-name="Caminho 14" d="M10.691,1.573H.787A.787.787,0,0,1,.787,0h9.9a.787.787,0,1,1,0,1.573Z" transform="translate(0.251 6.561)" fill="#fff"/>
          </g>
        </g>
      </g>
    </g>
  </g>
</svg>
