<svg xmlns="http://www.w3.org/2000/svg" width="47.412" height="47.412" viewBox="0 0 47.412 47.412">
  <g id="_3-emissao-recibos" data-name="3-emissao-recibos" transform="translate(-287.588 -281.588)">
    <g id="_022-calculator" data-name="022-calculator" transform="translate(287.588 281.588)">
      <g id="Grupo_67" data-name="Grupo 67" transform="translate(3.824 22.177)">
        <ellipse id="Elipse_25" data-name="Elipse 25" cx="8.412" cy="8.412" rx="8.412" ry="8.412" transform="translate(24.471 7.647)" fill="#ffcb57"/>
        <rect id="Retângulo_206" data-name="Retângulo 206" width="13.765" height="6.118" fill="#ffcb57"/>
      </g>
      <g id="Grupo_68" data-name="Grupo 68" transform="translate(32.118 26)">
        <rect id="Retângulo_207" data-name="Retângulo 207" width="1.529" height="1.529" transform="translate(3.824)" fill="#e56565"/>
        <rect id="Retângulo_208" data-name="Retângulo 208" width="1.529" height="1.529" transform="translate(7.647)" fill="#e56565"/>
        <rect id="Retângulo_209" data-name="Retângulo 209" width="1.529" height="1.529" fill="#e56565"/>
      </g>
      <g id="Grupo_69" data-name="Grupo 69">
        <path id="Caminho_481" data-name="Caminho 481" d="M297.176,304a9.176,9.176,0,1,0,9.176,9.176A9.187,9.187,0,0,0,297.176,304Zm0,16.824a7.647,7.647,0,1,1,7.647-7.647A7.656,7.656,0,0,1,297.176,320.824Z" transform="translate(-260.471 -274.941)" fill="#3f3a34"/>
        <path id="Caminho_482" data-name="Caminho 482" d="M348.971,337.529h-.382V336h-1.529v1.529h-.382a2.676,2.676,0,0,0,0,5.353h2.294a1.147,1.147,0,1,1,0,2.294h-2.294a1.148,1.148,0,0,1-1.147-1.147v-.382H344v.382a2.679,2.679,0,0,0,2.676,2.676h.382v1.529h1.529v-1.529h.382a2.676,2.676,0,1,0,0-5.353h-2.294a1.147,1.147,0,1,1,0-2.294h2.294a1.148,1.148,0,0,1,1.147,1.147v.382h1.529v-.382A2.679,2.679,0,0,0,348.971,337.529Z" transform="translate(-311.118 -303.882)" fill="#3f3a34"/>
        <path id="Caminho_483" data-name="Caminho 483" d="M19.118,192H2.294A2.3,2.3,0,0,0,0,194.294v24.471a2.3,2.3,0,0,0,2.294,2.294H19.118a2.3,2.3,0,0,0,2.294-2.294V194.294A2.3,2.3,0,0,0,19.118,192Zm.765,26.765a.765.765,0,0,1-.765.765H2.294a.765.765,0,0,1-.765-.765V194.294a.765.765,0,0,1,.765-.765H19.118a.765.765,0,0,1,.765.765Z" transform="translate(0 -173.647)" fill="#3f3a34"/>
        <path id="Caminho_484" data-name="Caminho 484" d="M32,231.647H47.294V224H32Zm1.529-6.118H45.765v4.588H33.529Z" transform="translate(-28.941 -202.588)" fill="#3f3a34"/>
        <path id="Caminho_485" data-name="Caminho 485" d="M32,333.765H47.294V320H32Zm1.529-3.824h3.059v2.294H33.529Zm7.647-4.588v3.059H38.118v-3.059Zm-3.059-1.529v-2.294h3.059v2.294Zm4.588,1.529h3.059v3.059H42.706Zm-1.529,4.588v2.294H38.118v-2.294Zm-4.588-1.529H33.529v-3.059h3.059Zm6.118,3.824v-2.294h3.059v2.294Zm3.059-8.412H42.706v-2.294h3.059Zm-9.176-2.294v2.294H33.529v-2.294Z" transform="translate(-28.941 -289.412)" fill="#3f3a34"/>
        <rect id="Retângulo_210" data-name="Retângulo 210" width="1.529" height="1.529" transform="translate(9.941 24.471)" fill="#3f3a34"/>
        <rect id="Retângulo_211" data-name="Retângulo 211" width="1.529" height="1.529" transform="translate(13 24.471)" fill="#3f3a34"/>
        <rect id="Retângulo_212" data-name="Retângulo 212" width="1.529" height="1.529" transform="translate(6.882 24.471)" fill="#3f3a34"/>
        <path id="Caminho_486" data-name="Caminho 486" d="M286,25.061V5.5l2.07-2.07-1.081-1.081L276.826,12.509l-2.294-2.294L266.344,18.4l1.081,1.081,1.753-1.753v7.33h-2.294v1.529H288.3V25.061Zm-1.529,0h-2.294V9.319l2.294-2.294ZM270.708,16.2l3.824-3.824,2.294,2.294,3.824-3.824V25.061h-2.294V15.885h-1.529v9.176h-2.294V15.885H273v9.176h-2.294Z" transform="translate(-240.885 -2.12)" fill="#3f3a34"/>
        <path id="Caminho_487" data-name="Caminho 487" d="M17.529,1.529H32.824V16.824h1.529V0H16V16.824h1.529Z" transform="translate(-14.471)" fill="#3f3a34"/>
      </g>
      <g id="Grupo_70" data-name="Grupo 70" transform="translate(4.588 3.059)">
        <rect id="Retângulo_213" data-name="Retângulo 213" width="12.235" height="1.529" fill="#e56565"/>
        <rect id="Retângulo_214" data-name="Retângulo 214" width="9.176" height="1.529" transform="translate(3.059 3.059)" fill="#e56565"/>
        <rect id="Retângulo_215" data-name="Retângulo 215" width="1.529" height="1.529" transform="translate(0 3.059)" fill="#e56565"/>
        <rect id="Retângulo_216" data-name="Retângulo 216" width="12.235" height="1.529" transform="translate(0 6.118)" fill="#e56565"/>
        <rect id="Retângulo_217" data-name="Retângulo 217" width="12.235" height="1.529" transform="translate(0 9.176)" fill="#e56565"/>
        <rect id="Retângulo_218" data-name="Retângulo 218" width="1.529" height="1.529" transform="translate(10.706 12.235)" fill="#e56565"/>
        <rect id="Retângulo_219" data-name="Retângulo 219" width="9.176" height="1.529" transform="translate(0 12.235)" fill="#e56565"/>
      </g>
    </g>
  </g>
</svg>
