<svg xmlns="http://www.w3.org/2000/svg" width="51.527" height="51.527" viewBox="0 0 51.527 51.527">
  <g id="_6-fornecedores" data-name="6-fornecedores" transform="translate(-288.021 -445.473)">
    <g id="_021-cloud-computing" data-name="021-cloud-computing" transform="translate(288.021 445.473)">
      <ellipse id="Elipse_24" data-name="Elipse 24" cx="9.973" cy="9.973" rx="9.973" ry="9.973" transform="translate(15.791 24.101)" fill="#ffcb57"/>
      <g id="Grupo_65" data-name="Grupo 65">
        <path id="Caminho_470" data-name="Caminho 470" d="M141.493,206.277l1.794-1.794-1.175-1.175-1.794,1.794a10.745,10.745,0,0,0-6.189-2.566V200h-1.662v2.536a10.742,10.742,0,0,0-6.189,2.566l-1.794-1.794-1.175,1.175,1.794,1.794a10.745,10.745,0,0,0-2.566,6.189H120v1.662h2.536a10.742,10.742,0,0,0,2.566,6.189l-1.794,1.794,1.175,1.175,1.794-1.794a10.745,10.745,0,0,0,6.189,2.566v2.536h1.662v-2.536a10.742,10.742,0,0,0,6.189-2.566l1.794,1.794,1.175-1.175-1.794-1.794a10.745,10.745,0,0,0,2.566-6.189h2.536v-1.662h-2.536A10.742,10.742,0,0,0,141.493,206.277Zm-8.2,16.162a9.142,9.142,0,1,1,9.142-9.142A9.153,9.153,0,0,1,133.3,222.439Z" transform="translate(-107.534 -179.223)" fill="#3f3a34"/>
        <path id="Caminho_471" data-name="Caminho 471" d="M210.969,259.324h2.374a1.308,1.308,0,0,1,1.306,1.306h1.662a2.972,2.972,0,0,0-2.969-2.968h-.356V256h-1.662v1.662h-.356A2.972,2.972,0,0,0,208,260.63v.712a2.972,2.972,0,0,0,2.969,2.969h2.374a1.308,1.308,0,0,1,1.306,1.306v.712a1.308,1.308,0,0,1-1.306,1.306h-2.374a1.308,1.308,0,0,1-1.306-1.306v-.712H208v.712a2.972,2.972,0,0,0,2.969,2.968h.356v1.662h1.662V269.3h.356a2.972,2.972,0,0,0,2.969-2.968v-.712a2.972,2.972,0,0,0-2.969-2.969h-2.374a1.308,1.308,0,0,1-1.306-1.306v-.712A1.308,1.308,0,0,1,210.969,259.324Z" transform="translate(-186.392 -229.405)" fill="#3f3a34"/>
        <path id="Caminho_472" data-name="Caminho 472" d="M41.554,9.142c-.153,0-.3.016-.454.023A12.458,12.458,0,0,0,18.189,6.418a9.108,9.108,0,0,0-12.339,7.9A7.477,7.477,0,0,0,7.48,29.088h7.48V27.426H7.48a5.818,5.818,0,1,1,5.4-8l1.541-.623a7.45,7.45,0,0,0-6.887-4.672,7.478,7.478,0,0,1,14.91.828H24.1a9.136,9.136,0,0,0-4.42-7.813A10.8,10.8,0,0,1,39.437,9.373a9.987,9.987,0,0,0-7.856,9.742h1.662a8.311,8.311,0,1,1,8.311,8.311H37.4v1.662h4.155a9.973,9.973,0,0,0,0-19.946Z" fill="#3f3a34"/>
      </g>
      <g id="Grupo_66" data-name="Grupo 66" transform="translate(8.311 16.622)">
        <path id="Caminho_473" data-name="Caminho 473" d="M370.493,308.986a2.493,2.493,0,1,1,2.493-2.493A2.5,2.5,0,0,1,370.493,308.986Zm0-3.324a.831.831,0,1,0,.831.831A.832.832,0,0,0,370.493,305.662Z" transform="translate(-338.081 -289.041)" fill="#e56565"/>
        <path id="Caminho_474" data-name="Caminho 474" d="M328.326,207.169a2.494,2.494,0,1,1,1.763-4.257h0a2.494,2.494,0,0,1-1.763,4.257Zm0-3.324a.831.831,0,0,0-.588,1.419.85.85,0,0,0,1.175,0,.831.831,0,0,0-.588-1.419Z" transform="translate(-300.295 -197.801)" fill="#e56565"/>
        <path id="Caminho_475" data-name="Caminho 475" d="M226.493,164.986a2.493,2.493,0,1,1,2.493-2.493A2.5,2.5,0,0,1,226.493,164.986Zm0-3.324a.831.831,0,1,0,.831.831A.832.832,0,0,0,226.493,161.662Z" transform="translate(-209.041 -160)" fill="#e56565"/>
        <path id="Caminho_476" data-name="Caminho 476" d="M124.678,207.168a2.494,2.494,0,0,1-1.764-4.257h0a2.493,2.493,0,1,1,1.764,4.257Zm-.588-3.082a.833.833,0,0,0,0,1.176.852.852,0,0,0,1.176,0,.832.832,0,0,0-1.176-1.176Z" transform="translate(-117.803 -197.8)" fill="#e56565"/>
        <path id="Caminho_477" data-name="Caminho 477" d="M82.493,308.986a2.493,2.493,0,1,1,2.493-2.493A2.5,2.5,0,0,1,82.493,308.986Zm0-3.324a.831.831,0,1,0,.831.831A.832.832,0,0,0,82.493,305.662Z" transform="translate(-80 -289.041)" fill="#e56565"/>
        <path id="Caminho_478" data-name="Caminho 478" d="M124.68,411.019a2.483,2.483,0,0,1-1.763-.729h0a2.5,2.5,0,0,1,0-3.526,2.554,2.554,0,0,1,3.526,0,2.492,2.492,0,0,1-1.764,4.255Zm-.588-1.9a.831.831,0,1,0,1.175-1.176.85.85,0,0,0-1.175,0A.833.833,0,0,0,124.092,409.115Z" transform="translate(-117.805 -380.496)" fill="#e56565"/>
        <path id="Caminho_479" data-name="Caminho 479" d="M226.493,452.987a2.493,2.493,0,1,1,2.493-2.493A2.5,2.5,0,0,1,226.493,452.987Zm0-3.324a.831.831,0,1,0,.831.831A.832.832,0,0,0,226.493,449.662Z" transform="translate(-209.041 -418.081)" fill="#e56565"/>
        <path id="Caminho_480" data-name="Caminho 480" d="M328.327,411.019a2.492,2.492,0,0,1-1.764-4.255,2.555,2.555,0,0,1,3.527,0,2.5,2.5,0,0,1,0,3.526h0A2.488,2.488,0,0,1,328.327,411.019Zm0-3.323a.832.832,0,1,0,.587.244A.819.819,0,0,0,328.327,407.7Z" transform="translate(-300.296 -380.496)" fill="#e56565"/>
      </g>
    </g>
  </g>
</svg>
