<svg xmlns="http://www.w3.org/2000/svg" width="45.454" height="45.454" viewBox="0 0 45.454 45.454">
  <g id="_7-bancos" data-name="7-bancos" transform="translate(-34.046 -613.491)">
    <g id="_028-online-banking-1" data-name="028-online-banking-1" transform="translate(34.046 613.491)">
      <g id="Grupo_83" data-name="Grupo 83" transform="translate(8.798 31.525)">
        <rect id="Retângulo_301" data-name="Retângulo 301" width="1.466" height="1.466" fill="#e56565"/>
        <rect id="Retângulo_302" data-name="Retângulo 302" width="1.466" height="1.466" transform="translate(2.933)" fill="#e56565"/>
        <rect id="Retângulo_303" data-name="Retângulo 303" width="1.466" height="1.466" transform="translate(5.865)" fill="#e56565"/>
        <rect id="Retângulo_304" data-name="Retângulo 304" width="1.466" height="1.466" transform="translate(20.528)" fill="#e56565"/>
        <rect id="Retângulo_305" data-name="Retângulo 305" width="1.466" height="1.466" transform="translate(23.46)" fill="#e56565"/>
        <rect id="Retângulo_306" data-name="Retângulo 306" width="1.466" height="1.466" transform="translate(26.393)" fill="#e56565"/>
      </g>
      <g id="Grupo_84" data-name="Grupo 84" transform="translate(9.531 3.666)">
        <rect id="Retângulo_307" data-name="Retângulo 307" width="2.933" height="11.73" transform="translate(0 8.064)" fill="#ffcb57"/>
        <rect id="Retângulo_308" data-name="Retângulo 308" width="2.933" height="2.933" transform="translate(11.73 16.862)" fill="#ffcb57"/>
        <rect id="Retângulo_309" data-name="Retângulo 309" width="2.933" height="11.73" transform="translate(23.46 8.064)" fill="#ffcb57"/>
        <ellipse id="Elipse_30" data-name="Elipse 30" cx="7.331" cy="7.331" rx="7.331" ry="7.331" transform="translate(5.865)" fill="#ffcb57"/>
      </g>
      <g id="Grupo_85" data-name="Grupo 85">
        <path id="Caminho_516" data-name="Caminho 516" d="M30.792,416v1.466h13.2v2.2a2.2,2.2,0,0,1-2.2,2.2H3.666a2.2,2.2,0,0,1-2.2-2.2v-2.2h13.2V416H0v3.666a3.67,3.67,0,0,0,3.666,3.666H41.789a3.67,3.67,0,0,0,3.666-3.666V416Z" transform="translate(0 -377.877)" fill="#3f3a34"/>
        <path id="Caminho_517" data-name="Caminho 517" d="M178.2,420.4H187a2.2,2.2,0,0,0,2.2-2.2V416H176v2.2A2.2,2.2,0,0,0,178.2,420.4Zm-.733-2.933H187.73v.733a.734.734,0,0,1-.733.733h-8.8a.734.734,0,0,1-.733-.733Z" transform="translate(-159.871 -377.877)" fill="#3f3a34"/>
        <path id="Caminho_518" data-name="Caminho 518" d="M17.466,131.666a2.2,2.2,0,0,1,2.2-2.2h2.2V128h-2.2A3.67,3.67,0,0,0,16,131.666v21.261h1.466Z" transform="translate(-14.534 -116.27)" fill="#3f3a34"/>
        <path id="Caminho_519" data-name="Caminho 519" d="M416,129.466h2.2a2.2,2.2,0,0,1,2.2,2.2v21.261h1.466V131.666A3.67,3.67,0,0,0,418.2,128H416Z" transform="translate(-377.877 -116.27)" fill="#3f3a34"/>
        <path id="Caminho_520" data-name="Caminho 520" d="M50.933,160H49.466A1.468,1.468,0,0,0,48,161.466v20.528h1.466V161.466h1.466Z" transform="translate(-43.601 -145.337)" fill="#3f3a34"/>
        <path id="Caminho_521" data-name="Caminho 521" d="M418.933,181.994V161.466A1.468,1.468,0,0,0,417.466,160H416v1.466h1.466v20.528Z" transform="translate(-377.877 -145.337)" fill="#3f3a34"/>
        <path id="Caminho_522" data-name="Caminho 522" d="M110.792,272H80v4.4h30.792Zm-1.466,2.932H81.466v-1.466h27.859Z" transform="translate(-72.669 -247.073)" fill="#3f3a34"/>
        <path id="Caminho_523" data-name="Caminho 523" d="M85.865,8.8h-4.4V7.784L94.1,1.466h2.586l12.636,6.318V8.8h-4.4v1.466h5.865V6.878L97.035,0H93.757L80,6.878v3.386h5.865Z" transform="translate(-72.669)" fill="#3f3a34"/>
        <rect id="Retângulo_310" data-name="Retângulo 310" width="1.466" height="11.73" transform="translate(8.798 11.73)" fill="#3f3a34"/>
        <rect id="Retângulo_311" data-name="Retângulo 311" width="1.466" height="11.73" transform="translate(11.73 11.73)" fill="#3f3a34"/>
        <rect id="Retângulo_312" data-name="Retângulo 312" width="1.466" height="2.933" transform="translate(20.528 20.528)" fill="#3f3a34"/>
        <rect id="Retângulo_313" data-name="Retângulo 313" width="1.466" height="2.933" transform="translate(23.46 20.528)" fill="#3f3a34"/>
        <rect id="Retângulo_314" data-name="Retângulo 314" width="1.466" height="11.73" transform="translate(32.258 11.73)" fill="#3f3a34"/>
        <rect id="Retângulo_315" data-name="Retângulo 315" width="1.466" height="11.73" transform="translate(35.19 11.73)" fill="#3f3a34"/>
        <path id="Caminho_524" data-name="Caminho 524" d="M176.129,40.064a8.064,8.064,0,1,0-8.064,8.064A8.074,8.074,0,0,0,176.129,40.064Zm-8.064,6.6a6.6,6.6,0,1,1,6.6-6.6A6.606,6.606,0,0,1,168.064,46.663Z" transform="translate(-145.337 -29.067)" fill="#3f3a34"/>
        <path id="Caminho_525" data-name="Caminho 525" d="M218.2,66.933h1.466a.734.734,0,0,1,.733.733h1.466a2.2,2.2,0,0,0-2.2-2.2V64H218.2v1.466a2.2,2.2,0,0,0,0,4.4h1.466a.733.733,0,1,1,0,1.466H218.2a.734.734,0,0,1-.733-.733H216a2.2,2.2,0,0,0,2.2,2.2v1.466h1.466V72.8a2.2,2.2,0,1,0,0-4.4H218.2a.733.733,0,0,1,0-1.466Z" transform="translate(-196.205 -58.135)" fill="#3f3a34"/>
      </g>
    </g>
  </g>
</svg>
