<svg xmlns="http://www.w3.org/2000/svg" width="48.188" height="48.188" viewBox="0 0 48.188 48.188">
  <g id="_8-saldos" data-name="8-saldos" transform="translate(-164.292 -610.812)">
    <g id="_002-piggy-bank" data-name="002-piggy-bank" transform="translate(164.292 610.812)">
      <g id="Grupo_13" data-name="Grupo 13" transform="translate(0.777 5.441)">
        <path id="Caminho_312" data-name="Caminho 312" d="M22.767,200A14.768,14.768,0,0,0,8,214.767c0,8.55,4.663,13.213,4.663,13.213h6.218l.777-2.332h6.218l.777,2.332h6.218s4.663-4.663,4.663-13.213A14.768,14.768,0,0,0,22.767,200Z" transform="translate(-8 -186.01)" fill="#ffcb57"/>
        <ellipse id="Elipse_5" data-name="Elipse 5" cx="6.995" cy="6.995" rx="6.995" ry="6.995" transform="translate(27.98)" fill="#ffcb57"/>
      </g>
      <g id="Grupo_14" data-name="Grupo 14" transform="translate(0 4.663)">
        <path id="Caminho_313" data-name="Caminho 313" d="M295.772,48a7.772,7.772,0,1,0,7.772,7.772A7.781,7.781,0,0,0,295.772,48Zm0,13.99a6.218,6.218,0,1,1,6.218-6.218A6.225,6.225,0,0,1,295.772,61.99Z" transform="translate(-260.02 -48)" fill="#3f3a34"/>
        <path id="Caminho_314" data-name="Caminho 314" d="M338.332,82.332h1.554a.778.778,0,0,1,.777.777h1.554a2.335,2.335,0,0,0-2.332-2.332V80h-1.554v.777a2.332,2.332,0,1,0,0,4.663h1.554a.777.777,0,0,1,0,1.554h-1.554a.778.778,0,0,1-.777-.777H336a2.335,2.335,0,0,0,2.332,2.332v.777h1.554V88.55a2.332,2.332,0,0,0,0-4.663h-1.554a.777.777,0,1,1,0-1.554Z" transform="translate(-303.356 -76.891)" fill="#3f3a34"/>
        <path id="Caminho_315" data-name="Caminho 315" d="M102.218,312C98.731,312,96,313.707,96,315.886s2.731,3.886,6.218,3.886,6.218-1.707,6.218-3.886S105.7,312,102.218,312Zm0,6.218c-2.748,0-4.663-1.229-4.663-2.332s1.915-2.332,4.663-2.332,4.663,1.229,4.663,2.332S104.966,318.218,102.218,318.218Z" transform="translate(-86.673 -286.351)" fill="#3f3a34"/>
        <rect id="Ret창ngulo_43" data-name="Ret창ngulo 43" width="1.554" height="1.554" transform="translate(13.213 28.758)" fill="#3f3a34"/>
        <rect id="Ret창ngulo_44" data-name="Ret창ngulo 44" width="1.554" height="1.554" transform="translate(16.322 28.758)" fill="#3f3a34"/>
        <path id="Caminho_316" data-name="Caminho 316" d="M194.332,256a2.332,2.332,0,1,0,2.332,2.332A2.335,2.335,0,0,0,194.332,256Zm0,3.109a.777.777,0,1,1,.777-.777A.778.778,0,0,1,194.332,259.109Z" transform="translate(-173.346 -235.792)" fill="#3f3a34"/>
        <path id="Caminho_317" data-name="Caminho 317" d="M84.663,258.332a2.332,2.332,0,1,0-2.332,2.332A2.335,2.335,0,0,0,84.663,258.332Zm-3.109,0a.777.777,0,1,1,.777.777A.778.778,0,0,1,81.554,258.332Z" transform="translate(-72.228 -235.792)" fill="#3f3a34"/>
        <path id="Caminho_318" data-name="Caminho 318" d="M31.089,174.218a6.2,6.2,0,0,0-.112-1.159l-1.527.288a4.615,4.615,0,0,1-1.008,3.862,15.623,15.623,0,0,0-7.279-5.811,4.644,4.644,0,0,1,5.448-1.5l.581-1.441a6.2,6.2,0,0,0-7.568,2.441,15.1,15.1,0,0,0-8.161,0A6.212,6.212,0,0,0,0,174.218a6.163,6.163,0,0,0,1.815,4.388A15.435,15.435,0,0,0,0,185.876c0,8.77,4.691,13.563,4.891,13.762l.228.228h7.1L13,197.535h5.1l.777,2.332h7.1l.228-.228c.2-.2,4.89-4.992,4.89-13.762a15.435,15.435,0,0,0-1.815-7.27A6.163,6.163,0,0,0,31.089,174.218Zm-29.535,0a4.668,4.668,0,0,1,4.663-4.663A4.618,4.618,0,0,1,9.926,171.4a15.618,15.618,0,0,0-7.279,5.811A4.624,4.624,0,0,1,1.554,174.218Zm23.751,24.094H19.991l-.777-2.332H11.876l-.777,2.332H5.783a19.2,19.2,0,0,1-4.228-12.436,13.99,13.99,0,1,1,27.98,0A19.307,19.307,0,0,1,25.305,198.312Z" transform="translate(0 -156.341)" fill="#3f3a34"/>
      </g>
      <g id="Grupo_15" data-name="Grupo 15" transform="translate(23.317)">
        <path id="Caminho_319" data-name="Caminho 319" d="M282.135,17.775l-1.354-.763a9.3,9.3,0,0,0,.854-2.067l.111-.4,1.795-.6V10.922l-1.8-.6-.111-.4a9.3,9.3,0,0,0-.854-2.067l-.2-.36.846-1.69-2.139-2.139-1.688.846-.36-.2a9.3,9.3,0,0,0-2.067-.854l-.4-.11-.6-1.8h-3.026l-.6,1.8-.4.111a9.3,9.3,0,0,0-2.067.854l-.359.2-1.69-.846L263.5,6.207l-1.1-1.1,3.327-3.327,1.961.981a10.953,10.953,0,0,1,1.642-.678l.7-2.084h5.266l.695,2.084a10.952,10.952,0,0,1,1.642.678l1.961-.981L283.314,5.5l-.981,1.961a10.951,10.951,0,0,1,.678,1.642L285.1,9.8v5.266l-2.084.695A10.784,10.784,0,0,1,282.135,17.775Z" transform="translate(-260.224)" fill="#e56565"/>
        <path id="Caminho_320" data-name="Caminho 320" d="M255.069,90.823H249.8l-.695-2.084a10.953,10.953,0,0,1-1.642-.678l-1.961.981-3.724-3.724.981-1.961a10.784,10.784,0,0,1-.678-1.643L240,81.02V75.754l2.084-.694a10.772,10.772,0,0,1,.877-2.012l1.354.763a9.25,9.25,0,0,0-.854,2.067l-.111.4-1.795.6V79.9l1.8.6.111.4a9.234,9.234,0,0,0,.854,2.067l.2.36-.846,1.69,2.139,2.139,1.69-.846.36.2a9.3,9.3,0,0,0,2.067.854l.4.111.6,1.793h3.026l.6-1.8.4-.111a9.3,9.3,0,0,0,2.067-.854l.36-.2,1.69.846,2.535-2.535,1.1,1.1-3.327,3.327-1.961-.981a10.951,10.951,0,0,1-1.642.678Z" transform="translate(-240 -65.951)" fill="#e56565"/>
      </g>
    </g>
  </g>
</svg>
