<svg id="biometric" xmlns="http://www.w3.org/2000/svg" width="54.402" height="72.56" viewBox="0 0 54.402 72.56">
  <g id="Grupo_95" data-name="Grupo 95" transform="translate(0 0.001)">
    <path id="Caminho_539" data-name="Caminho 539" d="M207.472,221.1a7.553,7.553,0,0,0-14.5,4.176c2.719,9.454,12.665,17.938,21.775,25.147a1.511,1.511,0,0,0,1.876-2.369c-8.744-6.919-18.276-15.019-20.748-23.612a4.535,4.535,0,0,1,8.717-2.5c1.65,5.74,9.853,12.835,17.657,19.01a1.511,1.511,0,1,0,1.876-2.369C220,235.322,209.089,226.687,207.472,221.1Z" transform="translate(-174.54 -185.371)" fill="#807e93"/>
    <path id="Caminho_540" data-name="Caminho 540" d="M115.87,142.13a19.639,19.639,0,0,0-37.583,11.4l.006.022c2.481,8.617-2.837,11.007-4.532,11.532a1.511,1.511,0,1,0,.906,2.882c4.62-1.444,9.106-6.3,6.529-15.252a16.617,16.617,0,0,1,11.367-20.568l.014,0a16.711,16.711,0,0,1,20.485,11.143,1.429,1.429,0,0,0,.151.335c.157.26.48.807,10.191,8.686a1.511,1.511,0,0,0,1.906-2.345C121.783,147.1,116.625,142.84,115.87,142.13Z" transform="translate(-71.487 -110.298)" fill="#807e93"/>
    <path id="Caminho_541" data-name="Caminho 541" d="M139.493,180.861a13.62,13.62,0,0,0-16.82-9.309,13.868,13.868,0,0,0-9.333,16.732c3.052,13.9.77,17.107-5.49,19.065a1.511,1.511,0,0,0,.906,2.882c8.747-2.719,10.647-8.436,7.553-22.6a10.877,10.877,0,0,1,7.215-13.179,10.608,10.608,0,0,1,13.085,7.251c.6,2.06,2.209,4.888,14.581,14.681a1.511,1.511,0,1,0,1.876-2.369C141.838,185.136,139.916,182.323,139.493,180.861Z" transform="translate(-100.748 -146.805)" fill="#807e93"/>
    <path id="Caminho_542" data-name="Caminho 542" d="M253.522,275.272c-5.112-3.879-13.669-10.369-15.774-17.687a1.511,1.511,0,0,0-2.9.834c2.381,8.285,11.439,15.155,16.85,19.261a40.08,40.08,0,0,1,3.172,2.538A1.511,1.511,0,0,0,257,278.082,39.648,39.648,0,0,0,253.522,275.272Z" transform="translate(-210.619 -220.189)" fill="#807e93"/>
    <path id="Caminho_543" data-name="Caminho 543" d="M227,432.126a9.868,9.868,0,0,0-7.535-5.118c-5.136,0-5.931,8.732-6.043,10.481a1.511,1.511,0,0,0,1.414,1.6h.1a1.511,1.511,0,0,0,1.511-1.417c.19-3.112,1.381-7.644,3.021-7.644,2.239,0,3.828,2.157,5.1,3.888a16.291,16.291,0,0,0,1.381,1.71,1.511,1.511,0,0,0,2.136-2.136A13.437,13.437,0,0,1,227,432.126Z" transform="translate(-192.275 -366.534)" fill="#807e93"/>
    <path id="Caminho_544" data-name="Caminho 544" d="M158.35,364.39a1.511,1.511,0,0,0-2.879.906c1.293,4.04-1.248,11.967-5.07,13.209a1.511,1.511,0,1,0,.9,2.883l.031-.01C157.148,379.506,159.952,369.409,158.35,364.39Z" transform="translate(-137.27 -311.929)" fill="#807e93"/>
    <path id="Caminho_545" data-name="Caminho 545" d="M117.448,105.385c-1.888-.6-3.372-3.021-5.091-5.78-3.638-5.88-8.626-13.931-22.566-13.931a25.712,25.712,0,0,0-25.681,25.681,1.511,1.511,0,1,0,3.021,0A22.684,22.684,0,0,1,89.79,88.7c12.258,0,16.551,6.931,20,12.5,2.03,3.278,3.783,6.109,6.726,7.064a1.511,1.511,0,0,0,.965-2.863l-.031-.01Z" transform="translate(-64.109 -73.541)" fill="#807e93"/>
    <path id="Caminho_546" data-name="Caminho 546" d="M67.129,306.561a1.511,1.511,0,0,0,1.351-2.187,13.388,13.388,0,0,1-1.351-3.855,1.511,1.511,0,0,0-3.021,0,15.445,15.445,0,0,0,1.671,5.209A1.511,1.511,0,0,0,67.129,306.561Z" transform="translate(-64.108 -256.662)" fill="#807e93"/>
    <path id="Caminho_547" data-name="Caminho 547" d="M75.5,54.873a1.511,1.511,0,0,0,2.076-.5l0,0c1.311-2.163,7.771-8.336,19.856-8.336,11.614,0,19.877,5.883,21.367,8.336a1.511,1.511,0,1,0,2.583-1.568h0c-2.073-3.414-11.224-9.789-23.95-9.789-13.533,0-20.787,7.067-22.442,9.792A1.511,1.511,0,0,0,75.5,54.873Z" transform="translate(-73.26 -36.918)" fill="#807e93"/>
    <path id="Caminho_548" data-name="Caminho 548" d="M129.85,5.964c.692-.3,1.278-.6,1.834-.906,2.272-1.145,3.907-1.982,11.158-1.982a34.269,34.269,0,0,1,14.36,2.3c.577.215,1.157.429,1.765.637a1.53,1.53,0,0,0,.492.085,1.511,1.511,0,0,0,.492-2.94c-.586-.2-1.142-.408-1.7-.6a37.253,37.253,0,0,0-15.412-2.5c-7.988,0-9.989,1.027-12.526,2.329-.511.263-1.054.541-1.689.825a1.511,1.511,0,0,0,1.116,2.808q.059-.024.117-.052Z" transform="translate(-118.671 -0.007)" fill="#807e93"/>
    <path id="Caminho_549" data-name="Caminho 549" d="M408.511,136.423a1.511,1.511,0,0,0,2.879-.906,38.117,38.117,0,0,0-3.175-6.375,1.511,1.511,0,0,0-2.574,1.583A35.757,35.757,0,0,1,408.511,136.423Z" transform="translate(-357.079 -110.236)" fill="#807e93"/>
  </g>
  <path id="Caminho_550" data-name="Caminho 550" d="M215.67,250.75a1.511,1.511,0,0,1-.937-.326c-9.109-7.212-19.046-15.693-21.766-25.147a7.553,7.553,0,0,1,14.5-4.176c1.607,5.586,12.52,14.224,16.617,17.475a1.511,1.511,0,1,1-1.8,2.426c-.025-.018-.049-.038-.073-.058-7.8-6.176-16.013-13.267-17.66-19.01a4.533,4.533,0,1,0-8.713,2.5c2.471,8.593,12,16.693,20.744,23.612a1.511,1.511,0,0,1-.94,2.695Z" transform="translate(-174.538 -185.375)" fill="#807e93"/>
  <path id="Caminho_551" data-name="Caminho 551" d="M74.17,168.021a1.511,1.511,0,0,1-.45-2.952c1.689-.529,7.006-2.919,4.532-11.532a19.639,19.639,0,0,1,13.445-24.3l.015,0a19.756,19.756,0,0,1,24.125,12.9c.752.707,5.91,4.967,9.439,7.831a1.511,1.511,0,0,1-1.9,2.345c-9.714-7.883-10.037-8.43-10.194-8.689a1.521,1.521,0,0,1-.148-.332A16.617,16.617,0,0,0,81.16,152.7v0c2.574,8.946-1.91,13.807-6.532,15.252A1.5,1.5,0,0,1,74.17,168.021Z" transform="translate(-71.451 -110.293)" fill="#807e93"/>
  <path id="Caminho_552" data-name="Caminho 552" d="M108.3,210.313a1.511,1.511,0,0,1-.45-2.952c6.26-1.958,8.538-5.173,5.487-19.065a13.871,13.871,0,0,1,9.333-16.732,13.632,13.632,0,0,1,16.823,9.309c.42,1.459,2.338,4.272,13.551,13.149a1.511,1.511,0,1,1-1.8,2.426c-.025-.018-.049-.038-.073-.057-12.388-9.8-13.992-12.626-14.581-14.681a10.6,10.6,0,0,0-13.088-7.251,10.877,10.877,0,0,0-7.212,13.194c3.109,14.164,1.208,19.865-7.553,22.6A1.485,1.485,0,0,1,108.3,210.313Z" transform="translate(-100.749 -146.817)" fill="#807e93"/>
  <path id="Caminho_553" data-name="Caminho 553" d="M255.87,280.356a1.51,1.51,0,0,1-1.07-.441,40.332,40.332,0,0,0-3.172-2.541c-5.411-4.106-14.469-10.977-16.85-19.261a1.511,1.511,0,1,1,2.889-.884c.005.017.01.034.014.05,2.115,7.318,10.659,13.807,15.771,17.687a39.954,39.954,0,0,1,3.484,2.813,1.511,1.511,0,0,1-1.066,2.577Z" transform="translate(-210.549 -219.881)" fill="#807e93"/>
  <path id="Caminho_554" data-name="Caminho 554" d="M214.935,439.111h-.1a1.511,1.511,0,0,1-1.414-1.6c.109-1.749.906-10.481,6.043-10.481a9.88,9.88,0,0,1,7.553,5.121,12.986,12.986,0,0,0,1.082,1.366,1.511,1.511,0,0,1-2.136,2.136,15.845,15.845,0,0,1-1.381-1.707c-1.287-1.74-2.876-3.9-5.118-3.9-1.638,0-2.831,4.532-3.021,7.647A1.51,1.51,0,0,1,214.935,439.111Z" transform="translate(-192.275 -366.551)" fill="#807e93"/>
  <path id="Caminho_555" data-name="Caminho 555" d="M150.936,380.64a1.511,1.511,0,0,1-.465-2.949c3.819-1.242,6.345-9.17,5.07-13.209a1.511,1.511,0,1,1,2.876-.906c1.6,5.018-1.208,15.107-7.016,17A1.511,1.511,0,0,1,150.936,380.64Z" transform="translate(-137.339 -311.101)" fill="#807e93"/>
  <path id="Caminho_556" data-name="Caminho 556" d="M65.62,112.867a1.511,1.511,0,0,1-1.511-1.511A25.711,25.711,0,0,1,89.79,85.675c13.94,0,18.929,8.052,22.569,13.931,1.719,2.771,3.2,5.166,5.091,5.78a1.511,1.511,0,0,1-.9,2.883l-.031-.01c-2.943-.955-4.7-3.786-6.725-7.064-3.45-5.568-7.744-12.5-20-12.5a22.684,22.684,0,0,0-22.66,22.66A1.511,1.511,0,0,1,65.62,112.867Z" transform="translate(-64.109 -73.541)" fill="#807e93"/>
  <path id="Caminho_557" data-name="Caminho 557" d="M67.13,306.56a1.511,1.511,0,0,1-1.354-.834,15.409,15.409,0,0,1-1.668-5.209,1.511,1.511,0,0,1,3.021,0,13.429,13.429,0,0,0,1.351,3.855,1.511,1.511,0,0,1-1.351,2.188Z" transform="translate(-64.109 -256.66)" fill="#807e93"/>
  <path id="Caminho_558" data-name="Caminho 558" d="M119.922,55.093a1.511,1.511,0,0,1-1.293-.728c-1.486-2.453-9.753-8.336-21.367-8.336-12.085,0-18.545,6.173-19.859,8.336a1.511,1.511,0,1,1-2.637-1.474c.018-.032.037-.063.057-.094,1.653-2.722,8.907-9.789,22.44-9.789,12.726,0,21.878,6.375,23.95,9.792a1.511,1.511,0,0,1-1.29,2.293Z" transform="translate(-73.091 -36.917)" fill="#807e93"/>
  <path id="Caminho_559" data-name="Caminho 559" d="M159.863,6.091a1.509,1.509,0,0,1-.492-.082c-.6-.208-1.19-.426-1.767-.637a34.277,34.277,0,0,0-14.357-2.3c-7.251,0-8.886.837-11.143,1.994-.556.287-1.145.586-1.834.906A1.513,1.513,0,1,1,129.045,3.2c.637-.287,1.178-.565,1.692-.828,2.52-1.3,4.523-2.326,12.508-2.326a37.239,37.239,0,0,1,15.409,2.49c.556.205,1.112.414,1.7.6a1.511,1.511,0,0,1-.49,2.949Z" transform="translate(-119.075 0)" fill="#807e93"/>
  <path id="Caminho_560" data-name="Caminho 560" d="M409.97,137.4a1.511,1.511,0,0,1-1.438-1.051,35.856,35.856,0,0,0-2.87-5.71,1.511,1.511,0,0,1,2.574-1.583h0a38.144,38.144,0,0,1,3.172,6.375,1.511,1.511,0,0,1-1.438,1.97Z" transform="translate(-357.096 -110.161)" fill="#807e93"/>
</svg>
